Coordinates
version=1
nRows=29
nColumns=22
inDegrees=yes

Units are S.I. units (second, meters, Newtons, ...)
If the header above contains a line with 'inDegrees', this indicates whether rotational values are in degrees (yes) or radians (no).

endheader
time	pelvis_tilt	pelvis_list	pelvis_rotation	pelvis_tx	pelvis_ty	pelvis_tz	hip_flexion_r	hip_adduction_r	hip_rotation_r	knee_angle_r	ankle_angle_r	subtalar_angle_r	hip_flexion_l	hip_adduction_l	hip_rotation_l	knee_angle_l	ankle_angle_l	subtalar_angle_l	lumbar_extension	lumbar_bending	lumbar_rotation
      1.86000000	     -9.90428138	     -0.57581122	     -3.81098260	     -0.67049100	      0.97955944	      0.13408151	     34.12058747	     -3.30088008	     -2.17648821	    -27.12476890	     12.69648227	      2.33166382	     12.74583735	      4.96471988	     -2.60676623	    -15.84986363	     19.49706168	     -5.13976438	     -0.55982411	      1.07539322	      0.75923682
      1.87000000	     -9.88312557	     -0.51671830	     -3.81143567	     -0.66858447	      0.97935814	      0.13441363	     34.36961412	     -3.28989577	     -2.20941968	    -26.81160898	     12.56245794	      2.40349849	     12.59620472	      5.01797248	     -2.61180431	    -15.83542992	     19.60738267	     -5.13790331	     -0.58218081	      1.00547890	      0.71719878
      1.88000000	     -9.86583314	     -0.47316545	     -3.81811670	     -0.66662877	      0.97914917	      0.13479562	     34.61674755	     -3.25987410	     -2.24975897	    -26.50721050	     12.45710250	      2.51051351	     12.45806301	      5.04936421	     -2.62222790	    -15.84422319	     19.72284887	     -5.13264621	     -0.60306688	      0.95264039	      0.69139255
      1.89000000	     -9.85242032	     -0.44544726	     -3.82425681	     -0.66462913	      0.97892455	      0.13518600	     34.85942873	     -3.21736166	     -2.30842226	    -26.20709337	     12.40804187	      2.73661276	     12.34083562	      5.06330116	     -2.63652765	    -15.89569525	     19.84999190	     -5.11084500	     -0.62038805	      0.92529209	      0.68181701
      1.90000000	     -9.83057252	     -0.39939546	     -3.82774092	     -0.66254764	      0.97870773	      0.13562219	     35.09639298	     -3.19160010	     -2.37157808	    -25.93317943	     12.38358419	      2.79736638	     12.19329300	      5.09572521	     -2.64675319	    -15.90989015	     19.96451598	     -5.10581617	     -0.64357561	      0.87162553	      0.64174503
      1.91000000	     -9.80940891	     -0.36255159	     -3.82902477	     -0.66041293	      0.97848811	      0.13604679	     35.32370639	     -3.16124763	     -2.45033476	    -25.65891251	     12.34905554	      2.86558857	     12.04734453	      5.12157452	     -2.64973571	    -15.93583708	     20.09463173	     -5.09907440	     -0.66663754	      0.83984850	      0.60858109
      1.92000000	     -9.79024779	     -0.31844681	     -3.82343539	     -0.65822642	      0.97827198	      0.13649049	     35.53914796	     -3.13975172	     -2.53226238	    -25.37866468	     12.33333613	      2.89587866	     11.90605242	      5.15294965	     -2.66632510	    -15.97016431	     20.17163077	     -5.09774054	     -0.68815990	      0.79778506	      0.58952454
      1.93000000	     -9.76754418	     -0.29649577	     -3.80955103	     -0.65597082	      0.97805439	      0.13691953	     35.74649873	     -3.10733306	     -2.64196785	    -25.12048214	     12.25307546	      2.98290258	     11.74728622	      5.16667693	     -2.64313039	    -15.99098625	     20.34969533	     -5.08548516	     -0.71339009	      0.79406200	      0.53039553
      1.94000000	     -9.74345449	     -0.28332589	     -3.77617442	     -0.65365394	      0.97785043	      0.13735454	     35.92541739	     -3.07625554	     -2.76993559	    -24.84204712	     12.18234593	      3.07970882	     11.59359468	      5.17054533	     -2.62159388	    -16.03131629	     20.48809718	     -5.06831141	     -0.74095586	      0.79699805	      0.46977068
      1.95000000	     -9.71132887	     -0.27841508	     -3.73354304	     -0.65127171	      0.97765782	      0.13777806	     36.07627694	     -3.04505933	     -2.90771731	    -24.55681249	     12.12299300	      3.19388678	     11.43849846	      5.16860524	     -2.58693027	    -16.09454545	     20.61175039	     -5.04354721	     -0.77887587	      0.81621411	      0.41600392
      1.96000000	     -9.69872660	     -0.23011183	     -3.71402989	     -0.64880920	      0.97740846	      0.13826588	     36.25374627	     -3.03498213	     -2.99072709	    -24.29149562	     12.08941202	      3.21962884	     11.28792307	      5.20344803	     -2.60629716	    -16.12726940	     20.69930192	     -5.04282392	     -0.78448853	      0.78473020	      0.38486141
      1.97000000	     -9.65838427	     -0.24780766	     -3.65911751	     -0.64628181	      0.97720748	      0.13871786	     36.36712900	     -2.99029315	     -3.15109050	    -24.00906704	     11.99076693	      3.33362803	     11.11993607	      5.17844944	     -2.54139758	    -16.20582571	     20.88625130	     -5.01889866	     -0.82798728	      0.83499744	      0.30513415
      1.98000000	     -9.63536601	     -0.21428592	     -3.62754847	     -0.64367767	      0.97695375	      0.13924653	     36.50643776	     -2.97224305	     -3.24942618	    -23.74739876	     11.94005726	      3.39783797	     10.95181921	      5.19735969	     -2.53054132	    -16.24804082	     21.03204877	     -5.00777095	     -0.84302683	      0.82421940	      0.24061374
      1.99000000	     -9.60658057	     -0.19538963	     -3.58018472	     -0.64100616	      0.97670771	      0.13977634	     36.61325721	     -2.94850421	     -3.36687059	    -23.46511700	     11.90318051	      3.48430745	     10.78297185	      5.20200257	     -2.50079444	    -16.31374456	     21.18254085	     -4.98813144	     -0.86407720	      0.83134513	      0.17412478
      2.00000000	     -9.56131368	     -0.18795507	     -3.52030527	     -0.63826374	      0.97648876	      0.14031470	     36.68122166	     -2.92270632	     -3.50357836	    -23.17262345	     11.89672245	      3.62714464	     10.59726893	      5.19432609	     -2.45862374	    -16.39301135	     21.30805947	     -4.94293022	     -0.90922241	      0.85088941	      0.11456737
      2.01000000	     -9.54580463	     -0.13725766	     -3.48260424	     -0.63545383	      0.97619490	      0.14093459	     36.78669886	     -2.91083679	     -3.54751994	    -22.90151662	     11.88388238	      3.68717959	     10.42947240	      5.22315325	     -2.44604548	    -16.44821051	     21.44288901	     -4.92535795	     -0.90978689	      0.82120740	      0.04285651
      2.02000000	     -9.52143116	     -0.11016706	     -3.42591008	     -0.63258393	      0.97591717	      0.14155885	     36.85413080	     -2.88678498	     -3.59985371	    -22.61303304	     11.87018202	      3.77472212	     10.25717468	      5.22865855	     -2.40215268	    -16.52560205	     21.59170588	     -4.89000736	     -0.92645683	      0.81860478	     -0.03282083
      2.03000000	     -9.47365405	     -0.11174015	     -3.36098923	     -0.62960885	      0.97568579	      0.14219545	     36.87014895	     -2.84671293	     -3.67760360	    -22.31801708	     11.85031079	      3.92685410	     10.05635187	      5.20324527	     -2.35309819	    -16.61431641	     21.72750187	     -4.80742836	     -0.96835815	      0.85332842	     -0.09573540
      2.04000000	     -9.47077584	     -0.06942658	     -3.31129696	     -0.62661653	      0.97535183	      0.14290577	     36.93902569	     -2.82152011	     -3.62677324	    -22.04764739	     11.82062762	      3.97440438	      9.89962028	      5.21717413	     -2.31791910	    -16.69045196	     21.85740780	     -4.77929224	     -0.95616425	      0.83793293	     -0.17391360
      2.05000000	     -9.44850524	     -0.08147576	     -3.24625572	     -0.62353077	      0.97506478	      0.14360984	     36.94804434	     -2.76301681	     -3.63097187	    -21.75324028	     11.75446932	      4.07535600	      9.72186656	      5.17500581	     -2.27022339	    -16.78450687	     22.02070146	     -4.69017901	     -0.96933143	      0.89276166	     -0.23334649
      2.06000000	     -9.45804905	     -0.04723991	     -3.18960409	     -0.62042509	      0.97469513	      0.14437334	     36.99926159	     -2.73330524	     -3.54921762	    -21.49143119	     11.71796973	      4.10879939	      9.57304191	      5.17760796	     -2.22695608	    -16.86348077	     22.15197509	     -4.65564737	     -0.94483798	      0.89448328	     -0.31218078
      2.07000000	     -9.45087192	     -0.06787656	     -3.12047408	     -0.61722468	      0.97436540	      0.14513975	     36.99303992	     -2.66991455	     -3.54580298	    -21.20495471	     11.65159582	      4.17597085	      9.40732467	      5.12076519	     -2.18434599	    -16.96092356	     22.32680548	     -4.54663336	     -0.94060845	      0.96407600	     -0.36603209
      2.08000000	     -9.46972715	     -0.03355225	     -3.06257360	     -0.61399043	      0.97395597	      0.14594164	     37.02707813	     -2.64780295	     -3.48375087	    -20.95816006	     11.64643747	      4.19375025	      9.26129699	      5.12102884	     -2.14047268	    -17.03837795	     22.46317064	     -4.50539947	     -0.90387642	      0.97555873	     -0.43150684
      2.09000000	     -9.46465769	     -0.04422625	     -2.98744613	     -0.61064486	      0.97359231	      0.14674508	     37.00087944	     -2.60670543	     -3.53349751	    -20.69717355	     11.64487830	      4.21730950	      9.09064270	      5.07182508	     -2.10282432	    -17.13550017	     22.63132846	     -4.37555150	     -0.89405084	      1.04123527	     -0.48393641
      2.10000000	     -9.46948220	     -0.02254615	     -2.92259077	     -0.60724051	      0.97318556	      0.14759805	     36.98788546	     -2.59009988	     -3.57361880	    -20.46667701	     11.69527613	      4.20764616	      8.92366449	      5.05474840	     -2.05901572	    -17.22424348	     22.78106500	     -4.27697409	     -0.87066942	      1.06862450	     -0.52143607
      2.11000000	     -9.49505208	      0.02325695	     -2.87135147	     -0.60376055	      0.97273007	      0.14849818	     36.98884765	     -2.58733269	     -3.59442531	    -20.25233444	     11.77352984	      4.18925255	      8.76954867	      5.05936708	     -2.02642151	    -17.30228847	     22.91156202	     -4.23299006	     -0.81818063	      1.07208498	     -0.55761918
      2.12000000	     -9.47569475	      0.04210004	     -2.79523443	     -0.60016826	      0.97235384	      0.14939463	     36.91832621	     -2.58731845	     -3.73093203	    -20.05101228	     11.85932900	      4.11762383	      8.56793494	      5.03625545	     -1.98463748	    -17.40034663	     23.03984197	     -4.09494782	     -0.81862902	      1.10539337	     -0.59119841
      2.13000000	     -9.50227935	      0.09994929	     -2.75346952	     -0.59650252	      0.97188090	      0.15038072	     36.89543431	     -2.59458563	     -3.77740704	    -19.87933187	     11.97180764	      4.07088056	      8.39997680	      5.04721993	     -1.95915198	    -17.47699675	     23.15927884	     -4.04948553	     -0.75746700	      1.09660574	     -0.60212920
      2.14000000	     -9.50341222	      0.14915386	     -2.69223300	     -0.59273456	      0.97144876	      0.15137495	     36.82776484	     -2.61194838	     -3.88573576	    -19.73516735	     12.09392167	      3.97650272	      8.20289208	      5.04923277	     -1.92228270	    -17.56450849	     23.27563439	     -3.96711585	     -0.72540806	      1.09572168	     -0.61874482
